<svg width="50" height="50" viewBox="0 0 50 50" fill="none" xmlns="http://www.w3.org/2000/svg">
<circle cx="25" cy="25" r="25" fill="white"/>
<g clip-path="url(#clip0_489_4018)">
<path d="M38.981 18.5386C38.9808 18.0145 38.8687 17.5514 38.642 17.1541C38.4194 16.7631 38.0859 16.4355 37.6387 16.1765C33.9467 14.0477 30.2512 11.9254 26.5604 9.79448C25.5654 9.22004 24.6007 9.24109 23.6131 9.82377C22.1436 10.6903 14.7862 14.9055 12.5939 16.1753C11.691 16.6981 11.2516 17.498 11.2514 18.5376C11.25 22.8188 11.2514 27.0999 11.25 31.3811C11.25 31.8937 11.3575 32.3479 11.5742 32.7392C11.797 33.1419 12.1351 33.4785 12.5927 33.7434C14.7852 35.0132 22.1434 39.2281 23.6126 40.0949C24.6007 40.6779 25.5654 40.6988 26.5608 40.1242C30.2516 37.9932 33.9474 35.8709 37.6399 33.7421C38.0974 33.4773 38.4355 33.1405 38.6583 32.7382C38.8747 32.3467 38.9824 31.8926 38.9824 31.3799C38.9824 31.3799 38.9824 22.8199 38.981 18.5386Z" fill="#A179DC"/>
<path d="M25.1586 24.918L11.5742 32.7396C11.797 33.1423 12.1351 33.4788 12.5927 33.7437C14.7852 35.0136 22.1434 39.2284 23.6126 40.0953C24.6007 40.6783 25.5654 40.6991 26.5608 40.1246C30.2516 37.9935 33.9474 35.8712 37.6399 33.7424C38.0974 33.4776 38.4355 33.1408 38.6583 32.7385L25.1586 24.918Z" fill="#280068"/>
<path d="M38.9811 18.5388C38.9808 18.0148 38.8688 17.5516 38.6421 17.1543L25.1587 24.918L38.6584 32.7384C38.8747 32.3469 38.9823 31.8928 38.9825 31.3801C38.9825 31.3801 38.9825 22.8201 38.9811 18.5388Z" fill="#390091"/>
<path d="M33.1568 21.9941V23.4562H34.6188V21.9941H35.3498V23.4562H36.8118V24.1872H35.3498V25.6491H36.8118V26.3801H35.3498V27.8421H34.6188V26.3801H33.1568V27.8421H32.4258V26.3801H30.9639V25.6491H32.4258V24.1872H30.9639V23.4562H32.4258V21.9941H33.1568ZM34.6188 24.1871H33.1568V25.6491H34.6188V24.1872V24.1871Z" fill="white"/>
<path d="M25.1886 14.6515C29.002 14.6515 32.3313 16.7224 34.1146 19.8008L34.0973 19.7712L29.6105 22.3545C28.7266 20.8579 27.1062 19.8478 25.2471 19.8269L25.1885 19.8266C22.3538 19.8266 20.0556 22.1248 20.0556 24.9595C20.0547 25.853 20.2881 26.7311 20.7326 27.5062C21.6173 29.0508 23.2807 30.0926 25.1886 30.0926C27.1085 30.0926 28.7812 29.0375 29.6614 27.4765L29.64 27.5139L34.12 30.1092C32.3562 33.1615 29.0724 35.226 25.3034 35.2671L25.1886 35.2678C21.3632 35.2678 18.0245 33.184 16.2456 30.0894C15.3772 28.5787 14.8804 26.8273 14.8804 24.9595C14.8804 19.2666 19.4954 14.6514 25.1885 14.6514L25.1886 14.6515Z" fill="white"/>
</g>
<defs>
<clipPath id="clip0_489_4018">
<rect width="27.7778" height="31.25" fill="white" transform="translate(11.25 9.375)"/>
</clipPath>
</defs>
</svg>
