<svg width="24" height="25" viewBox="0 0 24 25" fill="none" xmlns="http://www.w3.org/2000/svg">
<g clip-path="url(#clip0_17_3137)">
<path fill-rule="evenodd" clip-rule="evenodd" d="M12 0.443054C5.3724 0.443054 0 5.82385 0 12.4635C0 17.7735 3.438 22.2795 8.2068 23.8683C8.8068 23.9787 9.0252 23.6079 9.0252 23.2887C9.0252 23.0043 9.0156 22.2471 9.0096 21.2451C5.6712 21.9711 4.9668 19.6335 4.9668 19.6335C4.422 18.2439 3.6348 17.8743 3.6348 17.8743C2.5452 17.1303 3.7176 17.1447 3.7176 17.1447C4.9212 17.2287 5.5548 18.3831 5.5548 18.3831C6.6252 20.2191 8.364 19.6887 9.0468 19.3815C9.1572 18.6051 9.4668 18.0759 9.81 17.7759C7.146 17.4723 4.344 16.4403 4.344 11.8347C4.344 10.5231 4.812 9.44905 5.5788 8.60905C5.4552 8.30545 5.0436 7.08265 5.6964 5.42905C5.6964 5.42905 6.7044 5.10505 8.9964 6.66025C9.97532 6.39327 10.9853 6.25729 12 6.25585C13.02 6.26065 14.046 6.39385 15.0048 6.66025C17.2956 5.10505 18.3012 5.42785 18.3012 5.42785C18.9564 7.08265 18.5436 8.30545 18.4212 8.60905C19.1892 9.44905 19.6548 10.5231 19.6548 11.8347C19.6548 16.4523 16.848 17.4687 14.1756 17.7663C14.6064 18.1371 14.9892 18.8703 14.9892 19.9923C14.9892 21.5979 14.9748 22.8951 14.9748 23.2887C14.9748 23.6103 15.1908 23.9847 15.8004 23.8671C18.19 23.0656 20.2672 21.5334 21.7386 19.4871C23.2099 17.4408 24.001 14.9838 24 12.4635C24 5.82385 18.6264 0.443054 12 0.443054Z" fill="black"/>
</g>
<defs>
<clipPath id="clip0_17_3137">
<rect width="24" height="24" fill="white" transform="translate(0 0.443054)"/>
</clipPath>
</defs>
</svg>
