<svg width="50" height="50" viewBox="0 0 50 50" fill="none" xmlns="http://www.w3.org/2000/svg">
<circle cx="25" cy="25" r="25" fill="white"/>
<g clip-path="url(#clip0_489_4022)">
<path d="M20.5809 29.7825C20.5809 29.7825 19.3888 30.4757 21.4292 30.7102C23.9011 30.9922 25.1644 30.9518 27.8885 30.4362C27.8885 30.4362 28.6047 30.8853 29.6048 31.2743C23.4983 33.8914 15.7844 31.1226 20.5809 29.7825ZM19.8347 26.3672C19.8347 26.3672 18.4977 27.3569 20.5396 27.5681C23.1801 27.8405 25.2654 27.8628 28.8738 27.1679C28.8738 27.1679 29.3729 27.6739 30.1576 27.9506C22.7744 30.1096 14.5509 28.1209 19.8347 26.3672Z" fill="#5382A1"/>
<path d="M26.1257 20.5744C27.6304 22.3067 25.7304 23.8656 25.7304 23.8656C25.7304 23.8656 29.5509 21.8934 27.7963 19.4235C26.1576 17.1204 24.9008 15.9759 31.7042 12.0303C31.7042 12.0303 21.0252 14.6974 26.1257 20.5743" fill="#E76F00"/>
<path d="M34.2022 32.3087C34.2022 32.3087 35.0843 33.0354 33.2306 33.5978C29.7059 34.6656 18.5601 34.988 15.4638 33.6403C14.3508 33.1562 16.4381 32.4842 17.0946 32.3432C17.7793 32.1947 18.1706 32.2224 18.1706 32.2224C16.9328 31.3504 10.17 33.9346 14.7355 34.6745C27.1861 36.6937 37.4316 33.7654 34.2022 32.3087ZM21.1545 22.8287C21.1545 22.8287 15.4851 24.1753 19.1469 24.6642C20.6929 24.8712 23.775 24.8245 26.646 24.5839C28.9923 24.3861 31.3482 23.9652 31.3482 23.9652C31.3482 23.9652 30.5209 24.3195 29.9223 24.7282C24.1651 26.2424 13.0432 25.538 16.2451 23.9891C18.9529 22.6802 21.1546 22.8287 21.1546 22.8287H21.1545ZM31.3248 28.5135C37.1774 25.4723 34.4714 22.5498 32.5827 22.9436C32.1197 23.0399 31.9133 23.1233 31.9133 23.1233C31.9133 23.1233 32.0852 22.8542 32.4134 22.7377C36.1499 21.424 39.0235 26.612 31.2072 28.6668C31.2072 28.6669 31.2978 28.5859 31.3248 28.5135Z" fill="#5382A1"/>
<path d="M27.7962 5.65829C27.7962 5.65829 31.0375 8.90071 24.7221 13.8863C19.6579 17.8858 23.5673 20.1662 24.72 22.7716C21.7639 20.1045 19.5945 17.7566 21.0499 15.5714C23.1861 12.3636 29.104 10.8084 27.7962 5.6582" fill="#E76F00"/>
<path d="M21.7295 36.7541C27.3472 37.1138 35.9737 36.5546 36.178 33.8965C36.178 33.8965 35.7853 34.9043 31.5353 35.7045C26.7405 36.6067 20.8268 36.5014 17.3193 35.9231C17.3194 35.9231 18.0374 36.5174 21.7296 36.7541" fill="#5382A1"/>
</g>
<defs>
<clipPath id="clip0_489_4022">
<rect width="23.1214" height="31.25" fill="white" transform="translate(13.125 5.625)"/>
</clipPath>
</defs>
</svg>
