<svg width="319" height="64" viewBox="0 0 319 64" fill="none" xmlns="http://www.w3.org/2000/svg">
<path opacity="0.8" d="M29.9252 9.86965C38.5764 7.69261 56.5303 10.7833 59.1368 40.5623C61.7434 70.3413 40.7485 32.5084 29.9252 9.86965Z" fill="#5D5FEF"/>
<path opacity="0.8" d="M39.4732 9.89718C30.8762 7.37038 12.8595 9.73164 9.56832 39.391C6.27712 69.0505 28.1336 32.0866 39.4732 9.89718Z" fill="#28B851"/>
<path opacity="0.8" d="M38.9171 54.5175C30.2659 56.6946 12.312 53.6039 9.70547 23.8249C7.09892 -5.95411 28.0938 31.8787 38.9171 54.5175Z" fill="#5D5FEF"/>
<path opacity="0.8" d="M29.3691 54.4901C37.9661 57.0169 55.9828 54.6556 59.274 24.9962C62.5652 -4.66319 40.7087 32.3007 29.3691 54.4901Z" fill="#28B851"/>
<path d="M82.5205 46.1793V7.42203H87.1714V41.9714H106.771V46.1793H82.5205Z" fill="black"/>
<path d="M115.962 57.2528V53.3771H131.465C132.535 53.3771 133.071 52.8234 133.071 51.7161V41.8606H132.295C131.926 42.6358 131.354 43.4109 130.579 44.1861C129.841 44.9243 128.863 45.5334 127.645 46.0132C126.427 46.4561 124.895 46.6776 123.049 46.6776C121.093 46.6776 119.284 46.2531 117.623 45.4042C115.999 44.5552 114.707 43.3002 113.747 41.6392C112.825 39.9781 112.363 37.948 112.363 35.5487V19.1046H116.737V35.2165C116.737 37.8742 117.402 39.812 118.73 41.0301C120.096 42.2482 121.923 42.8573 124.212 42.8573C126.796 42.8573 128.918 42.0083 130.579 40.3103C132.24 38.6124 133.071 36.084 133.071 32.725V19.1046H137.445V52.4912C137.445 53.9677 137.02 55.1304 136.171 55.9794C135.359 56.8283 134.16 57.2528 132.572 57.2528H115.962Z" fill="black"/>
<path d="M154.902 46.9545C153.02 46.9545 151.303 46.6222 149.753 45.9578C148.203 45.2934 146.985 44.3337 146.099 43.0787C145.213 41.8237 144.77 40.2919 144.77 38.4832C144.77 36.6376 145.213 35.1243 146.099 33.9431C146.985 32.725 148.203 31.8207 149.753 31.2301C151.303 30.6026 153.038 30.2888 154.958 30.2888H164.093V28.2956C164.093 26.3762 163.521 24.8628 162.377 23.7555C161.27 22.6481 159.609 22.0944 157.394 22.0944C155.216 22.0944 153.518 22.6296 152.3 23.7001C151.082 24.7336 150.251 26.1363 149.809 27.908L145.711 26.5792C146.154 25.0658 146.856 23.7001 147.815 22.482C148.775 21.227 150.048 20.2304 151.636 19.4922C153.26 18.717 155.198 18.3294 157.449 18.3294C160.919 18.3294 163.613 19.2338 165.533 21.0424C167.452 22.8142 168.412 25.3242 168.412 28.5724V40.8087C168.412 41.916 168.929 42.4697 169.962 42.4697H172.454V46.1793H168.633C167.415 46.1793 166.437 45.8471 165.699 45.1827C164.961 44.4814 164.592 43.5586 164.592 42.4143V42.1375H163.927C163.521 42.8388 162.968 43.577 162.266 44.3522C161.602 45.0904 160.679 45.6995 159.498 46.1793C158.317 46.6961 156.785 46.9545 154.902 46.9545ZM155.401 43.1895C157.984 43.1895 160.07 42.4328 161.657 40.9194C163.281 39.3691 164.093 37.2098 164.093 34.4414V33.8323H155.124C153.389 33.8323 151.949 34.2199 150.805 34.9951C149.698 35.7333 149.144 36.8591 149.144 38.3725C149.144 39.8859 149.716 41.067 150.86 41.916C152.042 42.765 153.555 43.1895 155.401 43.1895Z" fill="black"/>
<path d="M178.444 46.1793V19.1046H182.708V23.7001H183.483C184.073 22.4082 185.07 21.2455 186.473 20.2119C187.912 19.1415 190.016 18.6063 192.785 18.6063C194.815 18.6063 196.623 19.0308 198.211 19.8797C199.835 20.7287 201.127 21.9837 202.086 23.6447C203.046 25.3057 203.526 27.3543 203.526 29.7905V46.1793H199.152V30.1227C199.152 27.4282 198.469 25.4718 197.103 24.2538C195.774 23.0357 193.966 22.4266 191.677 22.4266C189.056 22.4266 186.916 23.2756 185.255 24.9735C183.63 26.6715 182.818 29.1999 182.818 32.5589V46.1793H178.444Z" fill="black"/>
<path d="M212.4 46.1793V19.1046H216.664V23.7001H217.439C218.029 22.4082 219.026 21.2455 220.429 20.2119C221.868 19.1415 223.972 18.6063 226.74 18.6063C228.771 18.6063 230.579 19.0308 232.166 19.8797C233.791 20.7287 235.082 21.9837 236.042 23.6447C237.002 25.3057 237.482 27.3543 237.482 29.7905V46.1793H233.108V30.1227C233.108 27.4282 232.425 25.4718 231.059 24.2538C229.73 23.0357 227.922 22.4266 225.633 22.4266C223.012 22.4266 220.871 23.2756 219.21 24.9735C217.586 26.6715 216.774 29.1999 216.774 32.5589V46.1793H212.4Z" fill="black"/>
<path d="M254.661 46.9545C252.779 46.9545 251.062 46.6222 249.512 45.9578C247.962 45.2934 246.744 44.3337 245.858 43.0787C244.972 41.8237 244.529 40.2919 244.529 38.4832C244.529 36.6376 244.972 35.1243 245.858 33.9431C246.744 32.725 247.962 31.8207 249.512 31.2301C251.062 30.6026 252.797 30.2888 254.717 30.2888H263.852V28.2956C263.852 26.3762 263.28 24.8628 262.136 23.7555C261.028 22.6481 259.367 22.0944 257.153 22.0944C254.975 22.0944 253.277 22.6296 252.059 23.7001C250.841 24.7336 250.01 26.1363 249.567 27.908L245.47 26.5792C245.913 25.0658 246.614 23.7001 247.574 22.482C248.534 21.227 249.807 20.2304 251.395 19.4922C253.019 18.717 254.957 18.3294 257.208 18.3294C260.678 18.3294 263.372 19.2338 265.292 21.0424C267.211 22.8142 268.171 25.3242 268.171 28.5724V40.8087C268.171 41.916 268.688 42.4697 269.721 42.4697H272.213V46.1793H268.392C267.174 46.1793 266.196 45.8471 265.458 45.1827C264.72 44.4814 264.351 43.5586 264.351 42.4143V42.1375H263.686C263.28 42.8388 262.726 43.577 262.025 44.3522C261.361 45.0904 260.438 45.6995 259.257 46.1793C258.076 46.6961 256.544 46.9545 254.661 46.9545ZM255.16 43.1895C257.743 43.1895 259.829 42.4328 261.416 40.9194C263.04 39.3691 263.852 37.2098 263.852 34.4414V33.8323H254.883C253.148 33.8323 251.708 34.2199 250.564 34.9951C249.457 35.7333 248.903 36.8591 248.903 38.3725C248.903 39.8859 249.475 41.067 250.619 41.916C251.801 42.765 253.314 43.1895 255.16 43.1895Z" fill="black"/>
<path d="M278.203 46.1793V7.42203H282.577V23.4232H283.352C283.722 22.6112 284.275 21.8545 285.013 21.1532C285.789 20.4149 286.767 19.8059 287.948 19.3261C289.166 18.8462 290.698 18.6063 292.543 18.6063C294.574 18.6063 296.382 19.0492 297.969 19.9351C299.594 20.7841 300.885 22.0391 301.845 23.7001C302.805 25.3242 303.285 27.3543 303.285 29.7905V46.1793H298.911V30.1227C298.911 27.4282 298.228 25.4718 296.862 24.2538C295.533 23.0357 293.725 22.4266 291.436 22.4266C288.815 22.4266 286.674 23.2756 285.013 24.9735C283.389 26.6715 282.577 29.1999 282.577 32.5589V46.1793H278.203Z" fill="black"/>
<path d="M314.54 46.9545C313.469 46.9545 312.565 46.6038 311.827 45.9025C311.126 45.2011 310.775 44.2968 310.775 43.1895C310.775 42.0821 311.126 41.1778 311.827 40.4765C312.565 39.7751 313.469 39.4245 314.54 39.4245C315.647 39.4245 316.552 39.7751 317.253 40.4765C317.954 41.1778 318.305 42.0821 318.305 43.1895C318.305 44.2968 317.954 45.2011 317.253 45.9025C316.552 46.6038 315.647 46.9545 314.54 46.9545Z" fill="black"/>
</svg>
