<svg width="50" height="50" viewBox="0 0 50 50" fill="none" xmlns="http://www.w3.org/2000/svg">
<circle cx="25" cy="25" r="25" fill="white"/>
<g clip-path="url(#clip0_489_4023)">
<path d="M36.3491 19.4934C35.9757 19.3653 35.5991 19.2466 35.2197 19.1374C35.2834 18.877 35.3421 18.6198 35.3942 18.367C36.2492 14.2167 35.6902 10.8731 33.7811 9.77218C31.9507 8.71681 28.9571 9.81727 25.9338 12.4484C25.6358 12.7082 25.3445 12.9755 25.06 13.25C24.8696 13.0674 24.6758 12.8885 24.4788 12.7131C21.3102 9.89978 18.1342 8.71407 16.2271 9.8181C14.3983 10.8768 13.8568 14.02 14.6265 17.9534C14.7031 18.3429 14.7896 18.7305 14.8858 19.1157C14.4363 19.2434 14.0025 19.3794 13.5873 19.5241C9.8724 20.8193 7.5 22.8491 7.5 24.9545C7.5 27.129 10.0469 29.31 13.9161 30.6325C14.2298 30.7393 14.5461 30.8382 14.8647 30.9293C14.7612 31.3441 14.6694 31.7617 14.5892 32.1817C13.8554 36.0469 14.4285 39.1158 16.2523 40.1677C18.1361 41.2541 21.2978 40.1376 24.3764 37.4464C24.626 37.2276 24.8701 37.0026 25.1086 36.7716C25.4166 37.0689 25.7329 37.3574 26.057 37.637C29.0392 40.2031 31.9844 41.2393 33.8065 40.1845C35.6885 39.095 36.3002 35.7981 35.506 31.787C35.4435 31.4727 35.3733 31.1601 35.2956 30.8492C35.5177 30.7834 35.7356 30.7157 35.9481 30.6453C39.9705 29.3126 42.5877 27.158 42.5877 24.9545C42.5877 22.8414 40.1387 20.7979 36.3491 19.4934ZM35.4767 29.2226C35.2848 29.286 35.088 29.3473 34.8873 29.4069C34.4433 28.0011 33.844 26.5063 33.1106 24.9617C33.8104 23.4541 34.3867 21.9783 34.8183 20.5817C35.1772 20.6856 35.5255 20.7951 35.8613 20.9106C39.1083 22.0285 41.0888 23.681 41.0888 24.9545C41.0888 26.3108 38.9498 28.0717 35.4767 29.2226ZM34.0356 32.0781C34.3868 33.8517 34.4368 35.4553 34.2042 36.709C33.9953 37.8355 33.5751 38.5865 33.0554 38.8873C31.9497 39.5274 29.585 38.6954 27.0347 36.5008C26.7332 36.2408 26.439 35.9726 26.1524 35.6962C27.1412 34.615 28.1292 33.358 29.0936 31.9619C30.7899 31.8114 32.3924 31.5652 33.8457 31.2293C33.9157 31.5107 33.979 31.7937 34.0356 32.0781ZM19.4622 38.7767C18.3819 39.1581 17.5214 39.1691 17.0012 38.8692C15.8945 38.2309 15.4343 35.7667 16.062 32.4613C16.1366 32.0707 16.222 31.6823 16.3181 31.2964C17.7553 31.6144 19.3462 31.843 21.0465 31.9809C22.0174 33.347 23.034 34.6026 24.0585 35.7021C23.8408 35.9128 23.6179 36.1181 23.3901 36.3178C22.0286 37.5078 20.6645 38.3521 19.4622 38.7767ZM14.401 29.2142C12.6901 28.6294 11.2771 27.8694 10.3087 27.04C9.43832 26.2948 8.99904 25.5548 8.99904 24.9545C8.99904 23.6768 10.9038 22.0471 14.0807 20.9395C14.4663 20.8052 14.8698 20.6784 15.2885 20.5595C15.7277 21.9876 16.3036 23.4809 16.9986 24.9909C16.2945 26.5233 15.7104 28.0404 15.267 29.4854C14.9762 29.4021 14.6874 29.3117 14.401 29.2142ZM16.0976 17.6654C15.4382 14.2955 15.8761 11.7534 16.9782 11.1154C18.152 10.4358 20.7477 11.4047 23.4836 13.834C23.662 13.9928 23.8375 14.1548 24.01 14.3199C22.9905 15.4146 21.9833 16.6609 21.021 18.0189C19.3708 18.1719 17.7911 18.4175 16.3388 18.7465C16.2493 18.3883 16.1689 18.0279 16.0976 17.6655V17.6654ZM31.2329 21.4028C30.8898 20.8103 30.5341 20.2252 30.1658 19.648C31.2854 19.7896 32.358 19.9775 33.3653 20.2072C33.0629 21.1765 32.686 22.1898 32.2423 23.2287C31.918 22.6134 31.5815 22.0047 31.2329 21.4028ZM25.0607 15.3911C25.7521 16.1402 26.4445 16.9764 27.1255 17.8837C25.744 17.8185 24.3601 17.8182 22.9785 17.8829C23.6602 16.9839 24.3586 16.1488 25.0607 15.3911ZM18.849 21.4131C18.5047 22.0101 18.1744 22.6151 17.8584 23.2275C17.422 22.1923 17.0485 21.1743 16.7436 20.1913C17.7447 19.9674 18.8122 19.7842 19.9246 19.6453C19.5523 20.226 19.1936 20.8154 18.849 21.4129V21.4131ZM19.9566 30.3703C18.8073 30.242 17.7237 30.0684 16.7229 29.8504C17.0326 28.8499 17.4143 27.8103 17.8602 26.7529C18.1775 27.3657 18.5091 27.9711 18.8549 28.5684C19.2104 29.1824 19.5785 29.7838 19.9566 30.3703ZM25.1021 34.6233C24.3916 33.8569 23.683 33.0089 22.991 32.0969C23.6628 32.1232 24.3477 32.1366 25.0439 32.1366C25.759 32.1366 26.466 32.1206 27.1619 32.0896C26.4786 33.0181 25.7888 33.8673 25.1021 34.6233ZM32.2564 26.6989C32.7255 27.7679 33.1208 28.8021 33.4346 29.7855C32.4174 30.0177 31.3189 30.2046 30.1616 30.3435C30.5325 29.7555 30.8916 29.1603 31.2388 28.5581C31.5917 27.946 31.9311 27.3261 32.2564 26.6989ZM29.9404 27.8092C29.4089 28.7325 28.8475 29.6383 28.2571 30.5251C27.1877 30.6008 26.1159 30.6384 25.0439 30.6379C23.9519 30.6379 22.8898 30.6039 21.8671 30.5375C21.2613 29.6528 20.6892 28.7454 20.152 27.8174H20.1521C19.6175 26.8943 19.1181 25.9512 18.655 24.9902C19.1169 24.029 19.6148 23.0855 20.1476 22.1617L20.1475 22.1618C20.6801 21.2378 21.2476 20.3343 21.8488 19.4534C22.8923 19.3744 23.9623 19.3333 25.0437 19.3333H25.0439C26.1302 19.3333 27.2016 19.3748 28.2448 19.4543C28.8399 20.334 29.4038 21.2343 29.9354 22.1538C30.47 23.0755 30.9745 24.0144 31.4481 24.969C30.9794 25.9333 30.4765 26.8807 29.9404 27.8092ZM33.0325 11.0707C34.2074 11.7483 34.6643 14.4809 33.9261 18.0644C33.879 18.293 33.8261 18.5259 33.7685 18.762C32.3126 18.426 30.7319 18.1761 29.0769 18.0208C28.1128 16.6479 27.1138 15.3996 26.1109 14.3191C26.3737 14.0657 26.6428 13.8189 26.9179 13.5789C29.5084 11.3247 31.9294 10.4346 33.0325 11.0707ZM25.0439 21.8212C26.7743 21.8212 28.1771 23.2241 28.1771 24.9545C28.1771 26.6849 26.7743 28.0877 25.0439 28.0877C23.3135 28.0877 21.9106 26.6849 21.9106 24.9545C21.9106 23.2241 23.3135 21.8212 25.0439 21.8212Z" fill="#00D8FF"/>
</g>
<defs>
<clipPath id="clip0_489_4023">
<rect width="35.0877" height="31.25" fill="white" transform="translate(7.5 9.375)"/>
</clipPath>
</defs>
</svg>
