<svg width="51" height="24" viewBox="0 0 51 24" fill="none" xmlns="http://www.w3.org/2000/svg">
<path d="M20.9941 21V19C20.9941 17.9391 20.5727 16.9217 19.8226 16.1716C19.0724 15.4214 18.055 15 16.9941 15H8.99414C7.93327 15 6.91586 15.4214 6.16571 16.1716C5.41557 16.9217 4.99414 17.9391 4.99414 19V21M16.9941 7C16.9941 9.20914 15.2033 11 12.9941 11C10.785 11 8.99414 9.20914 8.99414 7C8.99414 4.79086 10.785 3 12.9941 3C15.2033 3 16.9941 4.79086 16.9941 7Z" stroke="white" stroke-width="2" stroke-linecap="round" stroke-linejoin="round"/>
<path d="M32.9941 9L38.9941 15L44.9941 9" stroke="white" stroke-width="1.66667" stroke-linecap="round" stroke-linejoin="round"/>
</svg>
