<svg width="29" height="30" viewBox="0 0 29 30" fill="none" xmlns="http://www.w3.org/2000/svg">
<g clip-path="url(#clip0_160_3851)">
<path d="M24.51 5.88995C22.6705 5.06039 20.6988 4.44723 18.6369 4.09858C18.6185 4.09505 18.5995 4.09733 18.5825 4.10508C18.5655 4.11283 18.5513 4.12569 18.5419 4.14186C18.2895 4.5855 18.0081 5.16378 17.811 5.62064C15.6242 5.29391 13.4009 5.29391 11.2141 5.62064C10.9945 5.11432 10.7469 4.62063 10.4723 4.14186C10.463 4.12549 10.449 4.11234 10.432 4.10418C10.415 4.09602 10.396 4.09322 10.3774 4.09617C8.31668 4.44483 6.34497 5.05798 4.50431 5.88875C4.48847 5.89539 4.47505 5.90672 4.46583 5.92121C0.724392 11.4216 -0.301139 16.7861 0.20261 22.0832C0.204011 22.0962 0.208039 22.1088 0.214446 22.1201C0.220853 22.1315 0.229507 22.1414 0.23988 22.1494C2.42366 23.7393 4.85938 24.9504 7.44504 25.7321C7.46307 25.7376 7.48235 25.7376 7.50036 25.7321C7.51838 25.7265 7.53429 25.7156 7.54603 25.7008C8.10243 24.9567 8.59549 24.1673 9.02001 23.3408C9.0259 23.3295 9.02929 23.3171 9.02996 23.3043C9.03063 23.2916 9.02856 23.2789 9.02389 23.267C9.01921 23.2552 9.01205 23.2445 9.00287 23.2356C8.9937 23.2268 8.98273 23.22 8.97071 23.2158C8.19406 22.9233 7.44154 22.5703 6.72008 22.1602C6.70711 22.1528 6.69619 22.1423 6.68829 22.1296C6.68038 22.1169 6.67575 22.1025 6.67479 22.0876C6.67384 22.0727 6.6766 22.0578 6.68282 22.0443C6.68905 22.0307 6.69855 22.0189 6.71046 22.0099C6.86195 21.8981 7.01343 21.7815 7.1577 21.6648C7.17069 21.6544 7.18633 21.6477 7.20289 21.6456C7.21944 21.6434 7.23627 21.646 7.25148 21.6528C11.9728 23.7736 17.086 23.7736 21.752 21.6528C21.7672 21.6455 21.7842 21.6427 21.801 21.6446C21.8178 21.6465 21.8337 21.6531 21.847 21.6636C21.9912 21.7815 22.1415 21.8981 22.2942 22.0099C22.3062 22.0187 22.3159 22.0303 22.3223 22.0438C22.3287 22.0573 22.3317 22.0721 22.331 22.087C22.3303 22.1019 22.3259 22.1163 22.3182 22.1291C22.3105 22.1419 22.2998 22.1526 22.287 22.1602C21.568 22.5738 20.8202 22.9236 20.0351 23.2146C20.0231 23.2189 20.0121 23.2258 20.0029 23.2348C19.9937 23.2438 19.9866 23.2546 19.9819 23.2665C19.9773 23.2785 19.9752 23.2913 19.9759 23.3041C19.9765 23.3169 19.9799 23.3294 19.9859 23.3408C20.4187 24.1668 20.914 24.953 21.4586 25.6996C21.4699 25.715 21.4857 25.7264 21.5038 25.7324C21.5219 25.7385 21.5414 25.7388 21.5596 25.7333C24.1497 24.9538 26.5894 23.7421 28.7756 22.1494C28.7863 22.1419 28.7952 22.1322 28.8018 22.1211C28.8085 22.1099 28.8126 22.0974 28.8141 22.0844C29.4152 15.9601 27.8066 10.6389 24.5472 5.92361C24.5392 5.90829 24.526 5.89635 24.51 5.88995ZM9.72574 18.8576C8.30466 18.8576 7.13245 17.5723 7.13245 15.9962C7.13245 14.4188 8.28182 13.1348 9.72574 13.1348C11.1805 13.1348 12.3419 14.4296 12.319 15.9962C12.319 17.5735 11.1697 18.8576 9.72574 18.8576ZM19.3138 18.8576C17.8915 18.8576 16.7205 17.5723 16.7205 15.9962C16.7205 14.4188 17.8687 13.1348 19.3138 13.1348C20.7685 13.1348 21.9299 14.4296 21.9071 15.9962C21.9071 17.5735 20.7697 18.8576 19.3138 18.8576Z" fill="black"/>
</g>
<defs>
<clipPath id="clip0_160_3851">
<rect width="28.8543" height="28.8543" fill="white" transform="translate(0.0834961 0.48938)"/>
</clipPath>
</defs>
</svg>
