<svg width="27" height="27" viewBox="0 0 27 27" fill="none" xmlns="http://www.w3.org/2000/svg">
<path fill-rule="evenodd" clip-rule="evenodd" d="M13.5 0C6.04395 0 0 6.0534 0 13.523C0 19.4967 3.86775 24.566 9.23265 26.3534C9.90765 26.4776 10.1534 26.0604 10.1534 25.7013C10.1534 25.3814 10.1426 24.5295 10.1358 23.4022C6.3801 24.219 5.58765 21.5892 5.58765 21.5892C4.97475 20.0259 4.08915 19.6101 4.08915 19.6101C2.86335 18.7731 4.1823 18.7893 4.1823 18.7893C5.53635 18.8838 6.24915 20.1825 6.24915 20.1825C7.45335 22.248 9.4095 21.6513 10.1776 21.3057C10.3018 20.4322 10.6502 19.8369 11.0363 19.4994C8.03925 19.1579 4.887 17.9969 4.887 12.8156C4.887 11.34 5.4135 10.1318 6.27615 9.18675C6.1371 8.8452 5.67405 7.46955 6.40845 5.60925C6.40845 5.60925 7.54245 5.24475 10.1209 6.99435C11.2222 6.69399 12.3585 6.54101 13.5 6.5394C14.6475 6.5448 15.8017 6.69465 16.8804 6.99435C19.4576 5.24475 20.5888 5.6079 20.5888 5.6079C21.3259 7.46955 20.8616 8.8452 20.7239 9.18675C21.5879 10.1318 22.1116 11.34 22.1116 12.8156C22.1116 18.0104 18.954 19.1538 15.9475 19.4886C16.4322 19.9058 16.8629 20.7306 16.8629 21.9929C16.8629 23.7992 16.8467 25.2585 16.8467 25.7013C16.8467 26.0631 17.0897 26.4843 17.7755 26.352C20.4637 25.4503 22.8006 23.7267 24.4559 21.4246C26.1112 19.1225 27.0012 16.3584 27 13.523C27 6.0534 20.9547 0 13.5 0Z" fill="black"/>
</svg>
