<svg width="27" height="27" viewBox="0 0 27 27" fill="none" xmlns="http://www.w3.org/2000/svg">
<g clip-path="url(#clip0_232_3724)">
<path d="M5.01865 4.73257C5.85396 5.41348 6.17037 5.36539 7.74734 5.25992L22.6142 4.36807C22.9306 4.36807 22.6674 4.05167 22.5611 3.99851L20.0914 2.21398C19.6214 1.84442 18.9886 1.42761 17.7795 1.52801L3.38768 2.5827C2.86034 2.63079 2.75487 2.89489 2.96581 3.10582L5.01865 4.73257ZM5.91049 8.20039V23.8401C5.91049 24.6797 6.32815 24.9961 7.27315 24.9429L23.6124 23.9979C24.5574 23.9448 24.6671 23.3693 24.6671 22.6842V7.14992C24.6671 6.46395 24.403 6.09945 23.8233 6.1526L6.75087 7.14992C6.11806 7.20307 5.91134 7.51442 5.91134 8.19617L5.91049 8.20039ZM22.0388 9.03486C22.1442 9.50989 22.0388 9.97986 21.5637 10.0372L20.7774 10.1959V21.74C20.0914 22.1096 19.4636 22.3205 18.9405 22.3205C18.0968 22.3205 17.8858 22.0564 17.2572 21.2701L12.107 13.1844V21.0068L13.7371 21.3764C13.7371 21.3764 13.7371 22.3214 12.4234 22.3214L8.79781 22.5323C8.69234 22.3214 8.79781 21.794 9.16737 21.6928L10.1124 21.4287V11.0885L8.79865 10.9831C8.69318 10.508 8.95727 9.82714 9.69049 9.77482L13.5793 9.51073L18.9405 17.7019V10.4549L17.5736 10.2963C17.4682 9.72082 17.8858 9.29895 18.4132 9.25001L22.0388 9.03486ZM2.17943 1.16436L17.1518 0.061574C18.9886 -0.097051 19.4637 0.00841774 20.6187 0.847949L25.4003 4.20945C26.1866 4.78489 26.4507 4.94351 26.4507 5.57211V23.9988C26.4507 25.1547 26.0289 25.8356 24.5607 25.9411L7.16684 26.9915C6.06827 27.0447 5.54093 26.8861 4.96043 26.152L1.44031 21.5814C0.811712 20.7419 0.548462 20.1133 0.548462 19.3801V3.00204C0.548462 2.05704 0.970337 1.27067 2.17859 1.1652L2.17943 1.16436Z" fill="black"/>
</g>
<defs>
<clipPath id="clip0_232_3724">
<rect width="27" height="27" fill="white"/>
</clipPath>
</defs>
</svg>
