<svg width="30" height="30" viewBox="0 0 30 30" fill="none" xmlns="http://www.w3.org/2000/svg">
<path d="M28.572 6.42498C27.5681 6.86982 26.4897 7.17038 25.356 7.30624C26.5258 6.60627 27.401 5.50461 27.8182 4.2068C26.7192 4.85962 25.5163 5.31913 24.2619 5.56536C23.4184 4.6647 22.3011 4.06773 21.0835 3.86713C19.8659 3.66653 18.6162 3.87353 17.5283 4.45598C16.4404 5.03843 15.5753 5.96375 15.0672 7.08827C14.5591 8.2128 14.4365 9.47362 14.7183 10.675C12.4914 10.5632 10.3128 9.98434 8.32402 8.97607C6.33523 7.9678 4.58067 6.55261 3.17422 4.82236C2.69331 5.65192 2.41679 6.61374 2.41679 7.63806C2.41625 8.56019 2.64334 9.4682 3.07789 10.2815C3.51244 11.0948 4.14103 11.7883 4.90788 12.3004C4.01854 12.2721 3.14882 12.0318 2.3711 11.5995V11.6717C2.37101 12.965 2.81838 14.2185 3.63731 15.2195C4.45623 16.2206 5.59626 16.9074 6.86396 17.1636C6.03895 17.3869 5.17399 17.4198 4.3344 17.2598C4.69207 18.3726 5.38878 19.3457 6.32699 20.0429C7.2652 20.7401 8.39795 21.1265 9.56665 21.1479C7.58271 22.7053 5.13257 23.5501 2.61035 23.5464C2.16357 23.5465 1.71716 23.5204 1.27344 23.4683C3.83363 25.1144 6.81388 25.988 9.8576 25.9846C20.161 25.9846 25.7936 17.4509 25.7936 10.0498C25.7936 9.80935 25.7876 9.56649 25.7768 9.32604C26.8724 8.53372 27.8181 7.55258 28.5696 6.42859L28.572 6.42498Z" fill="black"/>
</svg>
