<svg width="237" height="212" viewBox="0 0 237 212" fill="none" xmlns="http://www.w3.org/2000/svg">
<rect x="0.273193" y="0.000610352" width="236.726" height="211.738" rx="20" fill="black"/>
<path d="M195.212 175.399C194.643 173.34 132.919 152.752 132.919 112.72C132.919 80.6937 79.6337 56.5217 52.991 48.439M195.212 169.451C194.643 167.393 132.919 146.804 132.919 106.772C132.919 74.746 79.6335 50.574 52.9908 42.4912M205.711 166.625C204.783 164.652 140.047 151.33 132.971 111.704C127.31 80.0029 70.2935 62.1682 42.4926 57.2135M212.796 158.506C211.584 156.636 145.337 149.597 132.454 110.929C122.147 79.9939 62.8983 67.737 34.5622 65.4753M210.882 152.761C209.67 150.891 143.423 143.852 130.54 105.184C120.233 74.249 60.9843 61.992 32.6482 59.7304M220.113 147.845C218.582 146.133 151.764 146.739 132.177 109.936C116.507 80.4941 55.6934 75.1352 27.2453 76.136M227.693 129.387C225.721 127.997 160.803 140.734 131.379 108.445C107.839 82.613 47.0935 88.4479 19.663 94.5944M223.322 124.59C221.35 123.2 156.432 135.937 127.007 103.647C103.468 77.8156 42.7218 83.6506 15.2913 89.797M229.712 117.319C227.514 116.168 165.507 136.198 130.674 107.6C102.807 84.7221 43.7098 97.4426 17.6443 106.663M228.534 98.2407C226.074 97.5115 171.149 128.12 129.287 106.46C95.7966 89.133 41.6899 112.095 18.8228 125.742M222.315 95.0228C219.854 94.2937 164.929 124.902 123.067 103.243C89.5769 85.9151 35.4702 108.877 12.6031 122.524M225.039 86.3928C222.474 85.9524 173.517 122.529 128.252 105.876C92.039 92.5528 42.5405 121.467 22.3178 137.59M218.24 73.0425C215.619 72.9554 175.013 115.635 126.908 105.344C88.4246 97.1107 45.6805 132.31 29.119 150.939M211.093 71.5137C208.472 71.4266 167.865 114.106 119.761 103.815C81.2775 95.5819 38.5335 130.782 21.9719 149.411M210.395 62.6275C207.786 62.8408 175.135 109.729 125.7 105.042C86.1525 101.292 50.0644 141.021 36.9638 161.355" stroke="#A5B3FF"/>
<path d="M74.4167 183.417L84.8334 173L74.4167 162.583M53.5834 162.583L43.1667 173L53.5834 183.417M68.1667 154.25L59.8334 191.75" stroke="#A5B3FF" stroke-width="2" stroke-linecap="round" stroke-linejoin="round"/>
</svg>
