<svg width="258" height="230" viewBox="0 0 258 230" fill="none" xmlns="http://www.w3.org/2000/svg">
<rect y="-0.000366211" width="257.143" height="230" rx="20" fill="black"/>
<path d="M206.274 183.91C205.656 181.674 138.609 159.31 138.609 115.825C138.609 81.0367 80.7277 54.7799 51.7872 46.0001M206.274 177.449C205.656 175.213 138.609 152.849 138.609 109.364C138.609 74.576 80.7277 48.3193 51.7872 39.5394M217.678 174.379C216.671 172.236 146.352 157.765 138.665 114.721C132.516 80.2862 70.5819 60.9134 40.3834 55.5313M225.375 165.56C224.058 163.528 152.098 155.883 138.104 113.879C126.908 80.2765 62.5493 66.9624 31.7693 64.5057M223.296 159.32C221.979 157.288 150.019 149.642 136.025 107.639C124.829 74.0361 60.4702 60.722 29.6902 58.2653M233.323 153.98C231.66 152.12 159.08 152.778 137.803 112.801C120.782 80.8197 54.7231 74.9987 23.8215 76.0859M241.558 133.93C239.416 132.42 168.899 146.255 136.937 111.181C111.367 83.1214 45.3821 89.4596 15.5858 96.1361M236.809 128.719C234.667 127.208 164.15 141.044 132.188 105.97C106.618 77.9103 40.6334 84.2485 10.8371 90.925M243.75 120.821C241.363 119.571 174.008 141.328 136.171 110.264C105.901 85.4124 41.7064 99.23 13.3929 109.245M242.471 100.097C239.798 99.3049 180.136 132.553 134.663 109.026C98.2848 90.2037 39.5116 115.146 14.6723 129.97M235.715 96.6015C233.042 95.8095 173.38 129.057 127.907 105.53C91.5287 86.7083 32.7555 111.65 7.91626 126.474M238.674 87.2271C235.888 86.7487 182.709 126.48 133.539 108.39C94.2033 93.9184 40.4358 125.326 18.4689 142.839M231.288 72.7255C228.442 72.6309 184.333 118.991 132.079 107.812C90.2769 98.8694 43.8463 137.105 25.8564 157.341M223.525 71.0647C220.678 70.9701 176.569 117.33 124.316 106.152C82.5135 97.2087 36.083 135.444 18.0931 155.68M222.767 61.4121C219.933 61.6439 184.466 112.576 130.768 107.485C87.8087 103.412 48.6082 146.567 34.3777 168.654" stroke="#D37F00"/>
<path d="M72.7916 205.833H83.2083M69.6666 164.167H86.3333M77.9999 170.417V164.167M61.3333 185H94.6666M88.4166 199.583L91.5416 205.833M67.5833 199.583L64.4583 205.833M70.7083 192.292H70.7291M85.2916 192.292H85.3124M71.3333 199.583H84.6666C88.1669 199.583 89.9171 199.583 91.254 198.902C92.43 198.303 93.3862 197.347 93.9854 196.171C94.6666 194.834 94.6666 193.084 94.6666 189.583V180.417C94.6666 176.916 94.6666 175.166 93.9854 173.829C93.3862 172.653 92.43 171.697 91.254 171.098C89.9171 170.417 88.1669 170.417 84.6666 170.417H71.3333C67.8329 170.417 66.0828 170.417 64.7458 171.098C63.5698 171.697 62.6137 172.653 62.0145 173.829C61.3333 175.166 61.3333 176.916 61.3333 180.417V189.583C61.3333 193.084 61.3333 194.834 62.0145 196.171C62.6137 197.347 63.5698 198.303 64.7458 198.902C66.0828 199.583 67.8329 199.583 71.3333 199.583ZM71.7499 192.292C71.7499 192.867 71.2835 193.333 70.7083 193.333C70.133 193.333 69.6666 192.867 69.6666 192.292C69.6666 191.716 70.133 191.25 70.7083 191.25C71.2835 191.25 71.7499 191.716 71.7499 192.292ZM86.3333 192.292C86.3333 192.867 85.8669 193.333 85.2916 193.333C84.7163 193.333 84.2499 192.867 84.2499 192.292C84.2499 191.716 84.7163 191.25 85.2916 191.25C85.8669 191.25 86.3333 191.716 86.3333 192.292Z" stroke="#D37F00" stroke-width="2" stroke-linecap="round" stroke-linejoin="round"/>
</svg>
