<svg width="258" height="230" viewBox="0 0 258 230" fill="none" xmlns="http://www.w3.org/2000/svg">
<rect y="0.000488281" width="257.143" height="230" rx="20" fill="black"/>
<path d="M206.275 183.91C205.657 181.674 138.61 159.31 138.61 115.825C138.61 81.037 80.7285 54.7803 51.7879 46.0005M206.275 177.45C205.657 175.213 138.61 152.85 138.61 109.364C138.61 74.5764 80.7285 48.3197 51.7879 39.5398M217.679 174.379C216.672 172.236 146.353 157.765 138.666 114.721C132.517 80.2865 70.5827 60.9137 40.3842 55.5317M225.375 165.56C224.059 163.529 152.099 155.883 138.104 113.88C126.909 80.2769 62.5501 66.9628 31.7701 64.5061M223.296 159.32C221.98 157.288 150.02 149.643 136.025 107.639C124.83 74.0365 60.471 60.7224 29.691 58.2657M233.324 153.98C231.661 152.12 159.081 152.779 137.804 112.802C120.782 80.8201 54.7239 74.9991 23.8223 76.0863M241.559 133.93C239.417 132.42 168.9 146.256 136.938 111.181C111.368 83.1217 45.3829 89.46 15.5866 96.1365M236.81 128.719C234.668 127.209 164.151 141.045 132.189 105.97C106.619 77.9107 40.6342 84.2489 10.8379 90.9254M243.751 120.821C241.364 119.571 174.009 141.328 136.172 110.264C105.902 85.4128 41.7072 99.2304 13.3937 109.246M242.471 100.097C239.798 99.3053 180.137 132.553 134.664 109.026C98.2853 90.2041 39.5121 115.146 14.6728 129.97M235.715 96.6019C233.042 95.8099 173.381 129.058 127.908 105.531C91.5292 86.7087 32.756 111.651 7.91675 126.475M238.674 87.2275C235.888 86.7491 182.709 126.48 133.54 108.391C94.2038 93.9189 40.4362 125.327 18.4694 142.84M231.289 72.7258C228.442 72.6312 184.334 118.992 132.08 107.813C90.2777 98.8698 43.8471 137.105 25.8572 157.341M223.525 71.0651C220.679 70.9705 176.57 117.331 124.317 106.152C82.5143 97.209 36.0838 135.445 18.0939 155.68M222.767 61.4125C219.933 61.6442 184.467 112.577 130.768 107.485C87.8095 103.412 48.609 146.567 34.3785 168.654" stroke="#FFDA16"/>
<path d="M103.167 208.833C103.75 208.833 104.042 208.833 104.265 208.72C104.461 208.62 104.62 208.461 104.72 208.265C104.833 208.042 104.833 207.75 104.833 207.167V185.5C104.833 184.917 104.833 184.625 104.72 184.402C104.62 184.206 104.461 184.047 104.265 183.947C104.042 183.833 103.75 183.833 103.167 183.833L98.1667 183.833C97.5834 183.833 97.2917 183.833 97.0688 183.947C96.8728 184.047 96.7135 184.206 96.6136 184.402C96.5001 184.625 96.5001 184.917 96.5001 185.5V190.5C96.5001 191.083 96.5001 191.375 96.3865 191.598C96.2867 191.794 96.1273 191.953 95.9313 192.053C95.7085 192.167 95.4168 192.167 94.8334 192.167H89.8334C89.25 192.167 88.9583 192.167 88.7355 192.28C88.5395 192.38 88.3802 192.54 88.2803 192.736C88.1667 192.958 88.1667 193.25 88.1667 193.833V198.833C88.1667 199.417 88.1667 199.708 88.0532 199.931C87.9533 200.127 87.794 200.287 87.598 200.387C87.3752 200.5 87.0835 200.5 86.5001 200.5H81.5001C80.9167 200.5 80.625 200.5 80.4022 200.614C80.2062 200.713 80.0468 200.873 79.9469 201.069C79.8334 201.292 79.8334 201.583 79.8334 202.167V207.167C79.8334 207.75 79.8334 208.042 79.9469 208.265C80.0468 208.461 80.2062 208.62 80.4022 208.72C80.625 208.833 80.9167 208.833 81.5001 208.833L103.167 208.833Z" stroke="#FFDA16" stroke-width="2" stroke-linecap="round" stroke-linejoin="round"/>
<path d="M79.8334 177.167C79.8334 176.583 79.8334 176.292 79.9469 176.069C80.0468 175.873 80.2062 175.713 80.4022 175.614C80.625 175.5 80.9167 175.5 81.5001 175.5H86.5001C87.0835 175.5 87.3752 175.5 87.598 175.614C87.794 175.713 87.9533 175.873 88.0532 176.069C88.1667 176.292 88.1667 176.583 88.1667 177.167V182.167C88.1667 182.75 88.1667 183.042 88.0532 183.265C87.9533 183.461 87.794 183.62 87.598 183.72C87.3752 183.833 87.0835 183.833 86.5001 183.833H81.5001C80.9167 183.833 80.625 183.833 80.4022 183.72C80.2062 183.62 80.0468 183.461 79.9469 183.265C79.8334 183.042 79.8334 182.75 79.8334 182.167V177.167Z" stroke="#FFDA16" stroke-width="2" stroke-linecap="round" stroke-linejoin="round"/>
<path d="M65.2501 189.667C65.2501 189.083 65.2501 188.792 65.3636 188.569C65.4635 188.373 65.6228 188.213 65.8188 188.114C66.0417 188 66.3334 188 66.9167 188H71.9167C72.5001 188 72.7918 188 73.0147 188.114C73.2107 188.213 73.37 188.373 73.4699 188.569C73.5834 188.792 73.5834 189.083 73.5834 189.667V194.667C73.5834 195.25 73.5834 195.542 73.4699 195.765C73.37 195.961 73.2107 196.12 73.0147 196.22C72.7918 196.333 72.5001 196.333 71.9167 196.333H66.9167C66.3334 196.333 66.0417 196.333 65.8188 196.22C65.6228 196.12 65.4635 195.961 65.3636 195.765C65.2501 195.542 65.2501 195.25 65.2501 194.667V189.667Z" stroke="#FFDA16" stroke-width="2" stroke-linecap="round" stroke-linejoin="round"/>
<path d="M63.1667 168.833C63.1667 168.25 63.1667 167.958 63.2803 167.736C63.3802 167.54 63.5395 167.38 63.7355 167.28C63.9583 167.167 64.25 167.167 64.8334 167.167H69.8334C70.4168 167.167 70.7085 167.167 70.9313 167.28C71.1273 167.38 71.2867 167.54 71.3865 167.736C71.5001 167.958 71.5001 168.25 71.5001 168.833V173.833C71.5001 174.417 71.5001 174.708 71.3865 174.931C71.2867 175.127 71.1273 175.287 70.9313 175.387C70.7085 175.5 70.4168 175.5 69.8334 175.5H64.8334C64.25 175.5 63.9583 175.5 63.7355 175.387C63.5395 175.287 63.3802 175.127 63.2803 174.931C63.1667 174.708 63.1667 174.417 63.1667 173.833V168.833Z" stroke="#FFDA16" stroke-width="2" stroke-linecap="round" stroke-linejoin="round"/>
</svg>
