<svg width="237" height="212" viewBox="0 0 237 212" fill="none" xmlns="http://www.w3.org/2000/svg">
<rect width="236.726" height="211.738" rx="20" fill="black"/>
<path d="M195.212 166.908C194.643 164.849 132.919 144.261 132.919 104.229C132.919 72.2025 79.6337 48.0305 52.991 39.9478M195.212 160.96C194.643 158.901 132.919 138.313 132.919 98.2807C132.919 66.2548 79.6335 42.0827 52.9908 34M205.711 158.134C204.783 156.161 140.047 142.838 132.971 103.212C127.31 71.5117 70.2935 53.677 42.4926 48.7223M212.796 150.015C211.584 148.145 145.337 141.106 132.454 102.437C122.147 71.5027 62.8983 59.2458 34.5622 56.9841M210.882 144.27C209.67 142.4 143.423 135.361 130.54 96.6925C120.233 65.7578 60.9843 53.5008 32.6482 51.2391M220.113 139.354C218.582 137.642 151.764 138.248 132.177 101.445C116.507 72.0028 55.6934 66.644 27.2453 67.6448M227.693 120.896C225.721 119.506 160.803 132.243 131.379 99.9534C107.839 74.1218 47.0935 79.9567 19.663 86.1032M223.322 116.099C221.35 114.708 156.432 127.446 127.007 95.1561C103.468 69.3244 42.7218 75.1594 15.2913 81.3058M229.712 108.828C227.514 107.677 165.507 127.707 130.674 99.1091C102.807 76.2309 43.7098 88.9514 17.6443 98.1714M228.534 89.7494C226.074 89.0203 171.149 119.628 129.287 97.9692C95.7966 80.6417 41.6899 103.604 18.8228 117.25M222.315 86.5316C219.854 85.8025 164.929 116.411 123.067 94.7514C89.5769 77.4239 35.4702 100.386 12.6031 114.033M225.039 77.9016C222.474 77.4611 173.517 114.038 128.252 97.3843C92.039 84.0616 42.5405 112.976 22.3178 129.098M218.24 64.5513C215.619 64.4642 175.013 107.144 126.908 96.8525C88.4246 88.6195 45.6805 123.819 29.119 142.448M211.093 63.0225C208.472 62.9354 167.865 105.615 119.761 95.3236C81.2775 87.0907 38.5335 122.29 21.9719 140.919M210.395 54.1363C207.786 54.3496 175.135 101.238 125.7 96.5509C86.1525 92.8012 50.0644 132.53 36.9638 152.863" stroke="#28B851"/>
<path d="M74.8334 174.917V169.083C74.8334 166.75 74.8334 165.583 74.3793 164.692C73.9798 163.908 73.3424 163.27 72.5584 162.871C71.6671 162.417 70.5003 162.417 68.1667 162.417H39.8334C37.4999 162.417 36.3331 162.417 35.4418 162.871C34.6578 163.27 34.0204 163.908 33.6209 164.692C33.1667 165.583 33.1667 166.75 33.1667 169.083V176.583C33.1667 178.917 33.1667 180.084 33.6209 180.975C34.0204 181.759 34.6578 182.396 35.4418 182.796C36.3331 183.25 37.4999 183.25 39.8334 183.25H51.9167M54.0001 172.833H54.0105M64.4167 172.833H64.4272M43.5834 172.833H43.5938M69.1042 187.417V183.771C69.1042 181.757 67.472 180.125 65.4584 180.125C63.4449 180.125 61.8126 181.757 61.8126 183.771V187.417M54.5209 172.833C54.5209 173.121 54.2877 173.354 54.0001 173.354C53.7124 173.354 53.4792 173.121 53.4792 172.833C53.4792 172.546 53.7124 172.312 54.0001 172.312C54.2877 172.312 54.5209 172.546 54.5209 172.833ZM64.9376 172.833C64.9376 173.121 64.7044 173.354 64.4167 173.354C64.1291 173.354 63.8959 173.121 63.8959 172.833C63.8959 172.546 64.1291 172.312 64.4167 172.312C64.7044 172.312 64.9376 172.546 64.9376 172.833ZM44.1042 172.833C44.1042 173.121 43.8711 173.354 43.5834 173.354C43.2958 173.354 43.0626 173.121 43.0626 172.833C43.0626 172.546 43.2958 172.312 43.5834 172.312C43.8711 172.312 44.1042 172.546 44.1042 172.833ZM61.5001 195.75H69.4167C70.5835 195.75 71.1669 195.75 71.6126 195.523C72.0046 195.323 72.3233 195.004 72.523 194.612C72.7501 194.167 72.7501 193.583 72.7501 192.417V190.75C72.7501 189.583 72.7501 189 72.523 188.554C72.3233 188.162 72.0046 187.843 71.6126 187.644C71.1669 187.417 70.5835 187.417 69.4167 187.417H61.5001C60.3333 187.417 59.7499 187.417 59.3043 187.644C58.9123 187.843 58.5936 188.162 58.3938 188.554C58.1667 189 58.1667 189.583 58.1667 190.75V192.417C58.1667 193.583 58.1667 194.167 58.3938 194.612C58.5936 195.004 58.9123 195.323 59.3043 195.523C59.7499 195.75 60.3333 195.75 61.5001 195.75Z" stroke="#28B851" stroke-width="2" stroke-linecap="round" stroke-linejoin="round"/>
</svg>
