<svg width="237" height="212" viewBox="0 0 237 212" fill="none" xmlns="http://www.w3.org/2000/svg">
<rect x="0.273193" width="236.726" height="211.738" rx="20" fill="black"/>
<path d="M70.6667 175.167C70.6667 175.167 73.7917 179.333 79.0001 179.333C84.2084 179.333 87.3334 175.167 87.3334 175.167M85.2501 164.75H85.2709M70.6667 164.75H74.8334M99.8334 171C99.8334 182.506 90.506 191.833 79.0001 191.833C67.4941 191.833 58.1667 182.506 58.1667 171C58.1667 159.494 67.4941 150.167 79.0001 150.167C90.506 150.167 99.8334 159.494 99.8334 171ZM86.2917 164.75C86.2917 165.325 85.8254 165.792 85.2501 165.792C84.6748 165.792 84.2084 165.325 84.2084 164.75C84.2084 164.175 84.6748 163.708 85.2501 163.708C85.8254 163.708 86.2917 164.175 86.2917 164.75Z" stroke="#FFA5D5" stroke-width="2" stroke-linecap="round" stroke-linejoin="round"/>
<path d="M195.212 175.398C194.643 173.34 132.919 152.751 132.919 112.719C132.919 80.693 79.6337 56.521 52.991 48.4383M195.212 169.451C194.643 167.392 132.919 146.804 132.919 106.771C132.919 74.7452 79.6335 50.5732 52.9908 42.4905M205.711 166.624C204.783 164.651 140.047 151.329 132.971 111.703C127.31 80.0022 70.2935 62.1675 42.4926 57.2128M212.796 158.505C211.584 156.635 145.337 149.596 132.454 110.928C122.147 79.9932 62.8983 67.7362 34.5622 65.4746M210.882 152.76C209.67 150.89 143.423 143.851 130.54 105.183C120.233 74.2482 60.9843 61.9913 32.6482 59.7296M220.113 147.845C218.582 146.132 151.764 146.738 132.177 109.936C116.507 80.4933 55.6934 75.1345 27.2453 76.1353M227.693 129.386C225.721 127.996 160.803 140.733 131.379 108.444C107.839 82.6122 47.0935 88.4472 19.663 94.5936M223.322 124.589C221.35 123.199 156.432 135.936 127.007 103.647C103.468 77.8149 42.7218 83.6498 15.2913 89.7963M229.712 117.318C227.514 116.168 165.507 136.197 130.674 107.6C102.807 84.7214 43.7098 97.4419 17.6443 106.662M228.534 98.2399C226.074 97.5108 171.149 128.119 129.287 106.46C95.7966 89.1322 41.6899 112.094 18.8228 125.741M222.315 95.0221C219.854 94.293 164.929 124.901 123.067 103.242C89.5769 85.9144 35.4702 108.876 12.6031 122.523M225.039 86.392C222.474 85.9516 173.517 122.528 128.252 105.875C92.039 92.5521 42.5405 121.466 22.3178 137.589M218.24 73.0418C215.619 72.9547 175.013 115.634 126.908 105.343C88.4246 97.11 45.6805 132.31 29.119 150.939M211.093 71.513C208.472 71.4259 167.865 114.105 119.761 103.814C81.2775 95.5812 38.5335 130.781 21.9719 149.41M210.395 62.6268C207.786 62.8401 175.135 109.728 125.7 105.041C86.1525 101.292 50.0644 141.021 36.9638 161.354" stroke="#FFA5D5"/>
</svg>
